<mxfile host="app.diagrams.net" modified="2024-05-28T23:06:44.548Z" agent="Mozilla/5.0 (Windows NT 10.0; Win64; x64) AppleWebKit/537.36 (KHTML, like Gecko) Chrome/125.0.0.0 Safari/537.36" version="24.4.9" etag="Ds6r91kBlellMwXVCt6t" type="github">
  <diagram name="PÃ¡gina-1" id="0vV7Y8BXDTBJhq5oaUzq">
    <mxGraphModel>
      <root>
        <mxCell id="0" />
        <mxCell id="1" parent="0" />
      </root>
    </mxGraphModel>
  </diagram>
</mxfile>
